<svg id="Calque_1" data-name="Calque 1" xmlns="http://www.w3.org/2000/svg" xmlns:xlink="http://www.w3.org/1999/xlink" viewBox="0 0 300 190"><defs><style>.cls-1{fill:url(#Dégradé_sans_nom_63);}.cls-2{fill:url(#Dégradé_sans_nom_63-2);}.cls-3{fill:url(#Dégradé_sans_nom_63-3);}</style><linearGradient id="Dégradé_sans_nom_63" x1="44.91" y1="221.72" x2="258.05" y2="34.29" gradientUnits="userSpaceOnUse"><stop offset="0" stop-color="teal"/><stop offset="1" stop-color="#00c4c4"/></linearGradient><linearGradient id="Dégradé_sans_nom_63-2" x1="10.88" y1="183.02" x2="224.02" y2="-4.41" xlink:href="#Dégradé_sans_nom_63"/><linearGradient id="Dégradé_sans_nom_63-3" x1="32.14" y1="207.2" x2="245.29" y2="19.77" xlink:href="#Dégradé_sans_nom_63"/></defs><title>mail-sent</title><path class="cls-1" d="M297.48,81c-9-22.88-20.34-44.68-30.77-66.9-5.85-12.46-19-17.46-31.26-11.62q-67.11,31.91-134,64.26c-7.89,3.8-12,10.54-13.33,19.09-.69,4.54-.19,9.06,3.17,13.1,2.65-1.71,5.53-2.7,7.09-4.75,3.6-4.72,7.69-3.35,12.1-2.17,21.39,5.71,43,10.75,64.17,17.17,17.47,5.29,35.84-3.48,44-19.61,10.67-21,21.87-41.83,32.86-62.72.89-1.68,2-3.26,3.84-6.31,10.85,23.68,21.06,46,31.84,69.45-3.86-.44-6.16-.57-8.41-1-15.15-2.82-30.28-5.78-45.44-8.53-3.91-.71-7.46.13-8.11,5.06-.61,4.58,1.89,6.83,6,7.64q11.21,2.19,22.41,4.43,11.83,2.37,23.65,4.78l.33,2-126.1,60.46-1-1.48c1.31-2.58,2.57-5.19,3.94-7.74,6.12-11.36,12.29-22.69,18.4-34.06,2.09-3.89,1.27-7.25-2.42-9.55s-6.5-.15-8.77,2.84a21.31,21.31,0,0,0-1.66,2.86q-10.25,19-20.48,38c-1.18,2.19-2.51,4.3-4.26,7.29l-5.69-9.27L72.91,190a18.19,18.19,0,0,0,5.73-1.92q19.22-9.2,38.42-18.44c2.42-1.17,4.27-2,6.54.82,8.66,10.94,18.49,13.47,30.84,7.59Q220.78,146.46,287,114.51S306.88,105,297.48,81ZM237,26.12c-10.11,19.24-20.16,38.5-30.37,57.68-6.19,11.64-15.53,15.7-28.27,12.37-20.87-5.45-41.71-11-62.55-16.56-1.33-.36-2.6-.91-3.9-1.37l-.41-1.68L241,14.4c.42.51.83,1,1.25,1.55C240.46,19.34,238.75,22.75,237,26.12Z" transform="translate(0)"/><path class="cls-2" d="M103,126.13c.25.42.82.63,1.49,1.13,2.41-1.59,5.09-2.92,7.14-4.9,1.09-1.06,2-3.62,1.47-4.89-2.51-6.3-5.51-12.41-8.79-19.58L0,164.66c29.89-13.86,59.57-28.12,89.24-42.4C98.12,118,98.1,118,103,126.13Z" transform="translate(0)"/><path class="cls-3" d="M112.9,148c1,2.85,2.59,5.48,4.07,8.53,3.19-2.11,5.93-3.61,8.26-5.61.94-.8,1.73-3,1.31-4-2.91-7.11-6.15-14.07-9.5-21.57l-76.9,49.36.45.5C61.75,165,83,155,104,144.54,108.86,142.14,111.19,143,112.9,148Z" transform="translate(0)"/></svg>