<?xml version="1.0" encoding="utf-8"?>
<!-- Generator: Adobe Illustrator 23.0.0, SVG Export Plug-In . SVG Version: 6.00 Build 0)  -->
<svg version="1.1" id="Calque_1" focusable="false" xmlns="http://www.w3.org/2000/svg" xmlns:xlink="http://www.w3.org/1999/xlink"
	 x="0px" y="0px" viewBox="0 0 312 312" style="enable-background:new 0 0 312 312;" xml:space="preserve">
<style type="text/css">
	.st0{display:none;}
</style>
<path class="st0" d="M156,108.4c-26.3,0-47.6,21.2-47.6,47.6s21.2,47.6,47.6,47.6s47.6-21.2,47.6-47.6S182.4,108.4,156,108.4z
	 M156,186.9c-17,0-30.9-13.9-30.9-30.9s13.9-30.9,30.9-30.9S187,138.9,187,156S173,186.9,156,186.9L156,186.9z M216.7,106.5
	c0,6.2-5,11.1-11.1,11.1c-6.2,0-11.1-5-11.1-11.1c0-6.1,5-11.1,11.1-11.1C211.7,95.4,216.7,100.3,216.7,106.5z M248.2,117.7
	c-0.7-14.9-4.1-28-15-38.9c-10.9-10.9-24-14.2-38.9-15C179,63,133,63,117.7,63.9c-14.8,0.7-28,4.1-38.9,15s-14.2,24-15,38.9
	c-0.9,15.3-0.9,61.3,0,76.6c0.7,14.9,4.1,28,15,38.9s24,14.2,38.9,15c15.3,0.9,61.3,0.9,76.6,0c14.9-0.7,28-4.1,38.9-15
	c10.9-10.9,14.2-24,15-38.9C249,178.9,249,133.1,248.2,117.7L248.2,117.7z M228.4,210.7c-3.2,8.1-9.5,14.4-17.6,17.6
	c-12.2,4.8-41.2,3.7-54.7,3.7c-13.5,0-42.5,1.1-54.7-3.7c-8.1-3.2-14.4-9.5-17.6-17.6c-4.8-12.2-3.7-41.2-3.7-54.7
	s-1.1-42.5,3.7-54.7c3.2-8.1,9.5-14.4,17.6-17.6c12.2-4.8,41.2-3.7,54.7-3.7c13.5,0,42.5-1.1,54.7,3.7c8.1,3.2,14.4,9.5,17.6,17.6
	c4.8,12.2,3.7,41.2,3.7,54.7S233.2,198.5,228.4,210.7z"/>
<path d="M230.5,117.8c0.1,1.7,0.1,3.3,0.1,5c0,50.8-38.7,109.4-109.4,109.4c-21.8,0-42-6.3-59-17.3c3.1,0.4,6.1,0.5,9.3,0.5
	c18,0,34.5-6.1,47.7-16.4c-16.9-0.4-31.1-11.4-36-26.7c2.4,0.4,4.8,0.6,7.3,0.6c3.5,0,6.9-0.5,10.1-1.3c-17.6-3.6-30.8-19-30.8-37.7
	v-0.5c5.1,2.9,11.1,4.6,17.4,4.9c-10.4-6.9-17.1-18.7-17.1-32c0-7.1,1.9-13.7,5.2-19.4c18.9,23.3,47.4,38.6,79.3,40.2
	c-0.6-2.9-1-5.8-1-8.8c0-21.2,17.1-38.5,38.5-38.5c11.1,0,21.1,4.6,28.1,12.1c8.7-1.7,17-4.9,24.4-9.3c-2.9,8.9-8.9,16.4-16.9,21.2
	c7.7-0.8,15.2-3,22.1-6C244.6,105.5,238,112.3,230.5,117.8L230.5,117.8z"/>
<path class="st0" d="M185.7,95.4h17.1V66.6c-2.9-0.4-13.1-1.3-24.9-1.3c-24.6,0-41.5,15-41.5,42.6v25.4h-27.2v32.2h27.2v81.1h33.3
	v-81.1h26.1l4.1-32.2h-30.2v-22.2C169.7,101.8,172.3,95.4,185.7,95.4L185.7,95.4z"/>
<g>
	<path d="M156,311C70.5,311,1,241.5,1,156C1,70.5,70.5,1,156,1c85.5,0,155,69.5,155,155C311,241.5,241.5,311,156,311z M156,11
		C76,11,11,76,11,156s65,145,145,145s145-65,145-145S236,11,156,11z"/>
</g>
</svg>
